<!-- Generator: Adobe Illustrator 23.0.0, SVG Export Plug-In  -->
<svg version="1.1" xmlns="http://www.w3.org/2000/svg" xmlns:xlink="http://www.w3.org/1999/xlink" x="0px" y="0px" width="64px"
     height="64px" viewBox="0 0 64 64" style="enable-background:new 0 0 64 64;" xml:space="preserve">
<style type="text/css">
	.st0{fill:#2B2F29;}
    .st1{fill:url(#heart_x5F_fill_3_);}
    .st2{opacity:0.3;fill:#FFFFFF;}
    .st3{fill:none;stroke:#841618;stroke-width:2;stroke-miterlimit:10;}
    .st4{fill:#444445;}
    .st5{fill:url(#heart_x5F_fill_4_);}

    #heart_x5F_glow1_1_ {
        animation: 2s heart-glow 0s infinite ease;
    }
    #heart_x5F_glow2_1_ {
        animation: 2s heart-glow 0.1s infinite ease;
    }
    #heart_x5F_glow3_1_ {
        animation: 2s heart-glow 0.3s infinite ease;
    }

    @keyframes heart-glow {
        0% {
            opacity: 0.3;
        }
        5% {
            opacity: .5;
        }
        10%, 100% {
            opacity: .3;
        }
    }
</style>
    <defs>
</defs>
    <rect class="st0" width="64" height="64"/>
    <g id="heart_1_">
	<linearGradient id="heart_x5F_fill_3_" gradientUnits="userSpaceOnUse" x1="32.1596" y1="14.9957" x2="32.1596" y2="50.7655">
		<stop  offset="0" style="stop-color:#E34043"/>
        <stop  offset="1" style="stop-color:#8F1A1C"/>
	</linearGradient>
        <polygon id="heart_x5F_fill_1_" class="st1" points="11.19,21.18 21.44,15 32.16,21.31 41.88,15.3 51.13,19.09 55.43,24.41
		54.13,36.45 45.34,44.58 32.16,50.77 16.54,44.26 8.89,33.36 	"/>
        <polygon id="heart_x5F_glow1_1_" class="st2" points="21.34,14.4 10.68,20.66 8,33.44 16.22,44.91 	"/>
        <polygon id="heart_x5F_glow2_1_" class="st2" points="32.16,20.34 32.16,51.17 45.91,44.91 	"/>
        <polygon id="heart_x5F_glow3_1_" class="st2" points="41.84,14.4 51.36,18.47 56,24 54.86,36.61 	"/>
        <polygon id="heart_x5F_stroke_1_" class="st3" points="11.19,21.18 21.44,15 32.16,21.31 41.88,15.3 51.13,19.09 55.43,24.41
		54.13,36.45 45.34,44.58 32.16,50.77 16.54,44.26 8.89,33.36 	"/>
</g>
    <path class="st4" d="M61.48,8.68l-3.56-4.75L26.17,3.14l-11.5,2.97L3.72,3.14L2.73,15.8v17.08v15.36L4.71,60.7l14.04,1.98l7.42-2.18
	l13.75,1.38l13.05-0.99l8.51,0.59V51.17l-1.38-11.44l1.38-14.23V8.68z M32.76,54.57l-20.93-5.93L5.3,32.91l3.59-16.24l14.22-6.01
	L32.76,15l13.15-3.35l11.61,10.09L56,43.1L32.76,54.57z"/>
</svg>