<!-- Generator: Adobe Illustrator 23.0.0, SVG Export Plug-In  -->
<svg class="logo animated" version="1.1" xmlns="http://www.w3.org/2000/svg" xmlns:xlink="http://www.w3.org/1999/xlink" x="0px" y="0px"
     width="238.94px" height="62.69px" viewBox="0 0 238.94 62.69" style="enable-background:new 0 0 238.94 62.69;"
     xml:space="preserve">
            <style type="text/css">
                .st0{fill:url(#heart_x5F_fill_2_);}
                .st1{opacity:0.3;fill:#FFFFFF;}
                .st2{fill:none;stroke:#841618;stroke-width:4;stroke-miterlimit:10;}
                .st3{fill:#961A1D;}
                .st4{fill:none;stroke:url(#pulse_2_);stroke-linecap:round;stroke-linejoin:round;stroke-miterlimit:10;}
                .st5{fill:url(#heart_x5F_fill_3_);}
                .st6{fill:none;stroke:url(#pulse_3_);stroke-linecap:round;stroke-linejoin:round;stroke-miterlimit:10;}

                #heart_x5F_glow1_1_ {
                    animation: 2s heart-glow 0s infinite ease;
                }
                #heart_x5F_glow2_1_ {
                    animation: 2s heart-glow 0.1s infinite ease;
                }
                #heart_x5F_glow3_1_ {
                    animation: 2s heart-glow 0.3s infinite ease;
                }

                @keyframes heart-glow {
                    0% {
                        opacity: 0.3;
                    }
                    5% {
                        opacity: .5;
                    }
                    10%, 100% {
                        opacity: .3;
                    }
                }
            </style>
    <linearGradient id="heart_x5F_fill_2_" gradientUnits="userSpaceOnUse" x1="39.8411" y1="2.3287" x2="39.8411" y2="60.3073">
                <stop  offset="0" style="stop-color:#E34043"/>
        <stop  offset="1" style="stop-color:#8F1A1C"/>
            </linearGradient>
    <polygon id="heart_x5F_fill_1_" class="st0" points="5.84,12.36 22.47,2.33 39.84,12.57 55.6,2.83 70.59,8.97 77.56,17.58
                75.45,37.1 61.21,50.29 39.84,60.31 14.53,49.76 2.12,32.1 "/>
    <polygon id="heart_x5F_glow1_1_" class="st1" points="22.31,1.36 5.03,11.52 0.68,32.22 14,50.81 "/>
    <polygon id="heart_x5F_glow2_1_" class="st1" points="39.84,10.99 39.84,60.97 62.13,50.81 "/>
    <polygon id="heart_x5F_glow3_1_" class="st1" points="55.54,1.36 70.97,7.96 78.48,16.92 76.64,37.36 "/>
    <polygon id="heart_x5F_stroke_1_" class="st2" points="5.84,12.36 22.47,2.33 39.84,12.57 55.6,2.83 70.59,8.97 77.56,17.58
                75.45,37.1 61.21,50.29 39.84,60.31 14.53,49.76 2.12,32.1 "/>
    <g id="text_1_">
                <path class="st3" d="M87.97,18.5h4.28v22.72h-4.28V18.5z M89.88,37.09h13.31v4.13H89.88V37.09z"/>
        <path class="st3" d="M105.77,18.5h4.28v4.28h-4.28V18.5z M105.77,25h4.28v16.22h-4.28V25z"/>
        <path class="st3" d="M112.78,25h8.73v3.66h-8.73V25z M114.5,22.8c0-1.44,0.33-2.51,0.99-3.23c0.66-0.71,1.68-1.07,3.05-1.07h2.97
                    v3.81h-1.81c-0.3,0-0.53,0.11-0.69,0.34c-0.16,0.23-0.23,0.53-0.23,0.89v17.67h-4.28V22.8z"/>
        <path class="st3" d="M128.32,41.45c0,0-0.56-0.28-1.66-0.85c-1.11-0.57-1.96-1.4-2.54-2.48c-0.58-1.09-0.88-2.4-0.88-3.93v-1.83
                    c0-1.6,0.28-2.97,0.84-4.11c0.56-1.14,1.37-2,2.44-2.59c1.07-0.59,2.36-0.89,3.87-0.89c1.42,0,2.63,0.35,3.64,1.06
                    c1.01,0.71,1.78,1.74,2.3,3.09c0.53,1.35,0.79,2.98,0.79,4.88v1.06h-11.09v-2.89h7.19l-0.05-0.38c-0.12-0.94-0.41-1.66-0.88-2.17
                    c-0.47-0.51-1.11-0.77-1.9-0.77c-1.03,0-1.83,0.31-2.4,0.92c-0.57,0.61-0.85,1.48-0.85,2.61v2.06c0,1.1,0.31,1.96,0.93,2.56
                    c0.62,0.6,1.49,0.91,2.6,0.91c0.57,0,1.14-0.1,1.7-0.3s1.07-0.49,1.53-0.87l2.8,2.48c-0.84,0.77-1.79,1.37-2.84,1.79
                    c-1.05,0.42-2.12,0.63-3.19,0.63C129.1,41.45,128.32,41.45,128.32,41.45z"/>
        <path class="st3" d="M146.69,41.45c0,0-0.52-0.11-1.55-0.33c-1.04-0.22-2.01-0.54-2.92-0.96c-0.91-0.42-1.73-0.93-2.45-1.52
                    l1.98-3.53c0.88,0.72,1.88,1.27,3.03,1.66c1.15,0.39,2.32,0.59,3.53,0.59c1.4,0,2.48-0.24,3.25-0.71c0.77-0.47,1.16-1.14,1.16-2.01
                    v-0.02c0-0.6-0.17-1.08-0.52-1.44c-0.34-0.35-0.79-0.61-1.34-0.78c-0.55-0.17-1.26-0.32-2.13-0.45c-0.03-0.01-0.06-0.02-0.09-0.02
                    c-0.03,0-0.05,0-0.09-0.02l-0.34-0.05c-1.52-0.24-2.78-0.54-3.78-0.9s-1.85-0.99-2.55-1.89c-0.7-0.9-1.05-2.18-1.05-3.84v-0.02
                    c0-1.47,0.33-2.72,0.98-3.77c0.66-1.04,1.61-1.84,2.86-2.38s2.76-0.82,4.53-0.82c0.81,0,1.64,0.09,2.49,0.28
                    c0.85,0.19,1.68,0.46,2.49,0.81c0.81,0.35,1.58,0.78,2.31,1.28l-1.81,3.63c-0.88-0.6-1.79-1.07-2.74-1.41
                    c-0.95-0.33-1.87-0.5-2.74-0.5c-1.31,0-2.33,0.22-3.05,0.65c-0.72,0.43-1.08,1.04-1.08,1.82v0.02c0,0.66,0.19,1.17,0.56,1.55
                    c0.38,0.38,0.84,0.66,1.39,0.84c0.55,0.18,1.33,0.36,2.33,0.56c0.04,0.01,0.08,0.02,0.13,0.02c0.04,0.01,0.08,0.01,0.13,0.02
                    c0.06,0.01,0.12,0.02,0.18,0.04c0.06,0.02,0.12,0.03,0.18,0.04c1.44,0.28,2.64,0.62,3.6,1.02c0.96,0.4,1.77,1.05,2.41,1.94
                    c0.65,0.89,0.97,2.11,0.97,3.65v0.03c0,1.45-0.34,2.69-1.02,3.72c-0.68,1.03-1.66,1.82-2.96,2.36c-1.3,0.54-2.86,0.81-4.68,0.81
                    C147.23,41.45,146.69,41.45,146.69,41.45z"/>
        <path class="st3" d="M161.07,40.21c-0.86-0.83-1.29-2.09-1.29-3.77c0-1.6,0.48-2.81,1.45-3.61c0.96-0.8,2.41-1.2,4.34-1.2h4.06
                    l0.22,3.27h-4.27c-0.65,0-1.13,0.13-1.45,0.38c-0.32,0.26-0.48,0.64-0.48,1.16c0,0.53,0.2,0.92,0.61,1.18
                    c0.41,0.26,1.02,0.38,1.84,0.38c1.15,0,2-0.13,2.55-0.39c0.56-0.26,0.84-0.67,0.84-1.22l0.33,2.36c-0.06,0.58-0.33,1.08-0.8,1.48
                    c-0.47,0.41-1.07,0.71-1.78,0.91c-0.71,0.2-1.47,0.3-2.26,0.3C163.23,41.45,161.93,41.04,161.07,40.21z M169.49,30.94
                    c0-0.75-0.25-1.33-0.75-1.73s-1.21-0.61-2.13-0.61c-0.6,0-1.2,0.1-1.8,0.3c-0.59,0.2-1.12,0.47-1.58,0.83l-2.66-2.61
                    c0.65-0.74,1.5-1.31,2.56-1.73c1.06-0.41,2.24-0.62,3.53-0.62c1.42,0,2.63,0.24,3.63,0.71c1,0.47,1.76,1.16,2.29,2.06
                    c0.53,0.9,0.79,1.99,0.79,3.26v10.42h-3.89V30.94z"/>
        <path class="st3" d="M186.36,25h4.27l-6.09,16.22h-3.03L175.41,25h4.27l3.34,10.17L186.36,25z"/>
        <path class="st3" d="M197.43,41.45c0,0-0.55-0.28-1.66-0.85c-1.11-0.57-1.96-1.4-2.54-2.48c-0.58-1.09-0.88-2.4-0.88-3.93v-1.83
                    c0-1.6,0.28-2.97,0.84-4.11c0.56-1.14,1.37-2,2.44-2.59c1.07-0.59,2.36-0.89,3.87-0.89c1.42,0,2.63,0.35,3.64,1.06
                    c1.01,0.71,1.78,1.74,2.3,3.09c0.53,1.35,0.79,2.98,0.79,4.88v1.06h-11.09v-2.89h7.19l-0.05-0.38c-0.12-0.94-0.41-1.66-0.88-2.17
                    c-0.47-0.51-1.11-0.77-1.9-0.77c-1.03,0-1.83,0.31-2.4,0.92c-0.57,0.61-0.85,1.48-0.85,2.61v2.06c0,1.1,0.31,1.96,0.93,2.56
                    c0.62,0.6,1.49,0.91,2.6,0.91c0.57,0,1.14-0.1,1.7-0.3s1.07-0.49,1.53-0.87l2.8,2.48c-0.84,0.77-1.79,1.37-2.84,1.79
                    c-1.05,0.42-2.12,0.63-3.19,0.63C198.21,41.45,197.43,41.45,197.43,41.45z"/>
        <path class="st3" d="M209.97,25h4.59v16.22h-4.59V25z M218.33,29.05c-0.3-0.1-0.65-0.16-1.05-0.16c-0.87,0-1.53,0.28-2.01,0.84
                    c-0.47,0.56-0.71,1.33-0.71,2.32l-0.33-4.22c0.45-0.97,1.03-1.72,1.74-2.26c0.71-0.54,1.5-0.8,2.35-0.8c0.68,0,1.29,0.11,1.84,0.32
                    c0.55,0.21,1.02,0.53,1.43,0.95l-2.5,3.48C218.89,29.31,218.63,29.15,218.33,29.05z"/>
            </g>
    <linearGradient id="pulse_2_" gradientUnits="userSpaceOnUse" x1="66.511" y1="53.9776" x2="238.9395" y2="53.9776">
                <stop  offset="0" style="stop-color:#961A1D"/>
        <stop  offset="0.8" style="stop-color:#961A1D"/>
        <stop  offset="1" style="stop-color:#961A1D;stop-opacity:0"/>
            </linearGradient>
    <polyline id="pulse_1_" class="st4" points="67.01,55.07 79.47,55.07 83.42,45.77 87.58,62.19 90.81,50.58 92.15,55.07
                238.44,55.07 "/>
            </svg>